{"title":"Marco Rima: Handy Man [Schweizerdeutsch][Xvid]","uid":6923959,"size":366390482,"categoryP":"video","categoryS":"movies","magnet":"?xt=urn:btih:6648ece07873b682d4e7c6305ad395a8fd168394&amp;dn=Marco+Rima%3A+Handy+Man+%5BSchweizerdeutsch%5D%5BXvid%5D&amp;tr=udp%3A%2F%2Ftracker.openbittorrent.com%3A80&amp;tr=udp%3A%2F%2Fopen.demonii.com%3A1337&amp;tr=udp%3A%2F%2Ftracker.coppersurfer.tk%3A6969&amp;tr=udp%3A%2F%2Fexodus.desync.com%3A6969","seeders":0,"leechers":1,"uploader":"khunrah","files":1,"time":1325380270,"description":"Handy Man, mit Marco Rima (Schweizerdeutsch)\n\n\nAufgenommen vom Schweizer Fernsehen SF1 am 16.12.2007 (KEIN HD!!!)\nohne Werbeblock\n\n\nGeneral\nComplete name                            : Handy Man [SF1 16-12-2007].avi\nFormat                                   : AVI\nFormat/Info                              : Audio Video Interleave\nFile size                                : 349 MiB\nDuration                                 : 1h 26mn\nOverall bit rate                         : 566 Kbps\n\nVideo\nID                                       : 0\nFormat                                   : MPEG-4 Visual\nFormat profile                           : Advanced Simple@L5\nFormat settings, BVOP                    : 2\nFormat settings, QPel                    : No\nFormat settings, GMC                     : No warppoints\nFormat settings, Matrix                  : Default (H.263)\nCodec ID                                 : XVID\nCodec ID/Hint                            : XviD\nDuration                                 : 1h 26mn\nBit rate                                 : 425 Kbps\nWidth                                    : 640 pixels\nHeight                                   : 264 pixels\nDisplay aspect ratio                     : 2.40:1\nFrame rate                               : 25.000 fps\nColor space                              : YUV\nChroma subsampling                       : 4:2:0\nBit depth                                : 8 bits\nScan type                                : Progressive\nCompression mode                         : Lossy\nBits/(Pixel*Frame)                       : 0.101\nStream size                              : 263 MiB (75%)\nWriting library                          : XviD 63\n\nAudio\nID                                       : 1\nFormat                                   : MPEG Audio\nFormat version                           : Version 1\nFormat profile                           : Layer 3\nCodec ID                                 : 55\nCodec ID/Hint                            : MP3\nDuration                                 : 1h 26mn\nBit rate mode                            : Constant\nBit rate                                 : 128 Kbps\nChannel(s)                               : 2 channels\nSampling rate                            : 44.1 KHz\nCompression mode                         : Lossy\nStream size                              : 79.0 MiB (23%)\nAlignment                                : Split accross interleaves\nInterleave, duration                     : 26 ms (0.65 video frame)\nWriting library                          : LAME3.98.4","torrent":{"xt":"urn:btih:6648ece07873b682d4e7c6305ad395a8fd168394","amp;dn":"Marco+Rima%3A+Handy+Man+%5BSchweizerdeutsch%5D%5BXvid%5D","amp;tr":["udp%3A%2F%2Ftracker.openbittorrent.com%3A80","udp%3A%2F%2Fopen.demonii.com%3A1337","udp%3A%2F%2Ftracker.coppersurfer.tk%3A6969","udp%3A%2F%2Fexodus.desync.com%3A6969"],"infoHash":"6648ece07873b682d4e7c6305ad395a8fd168394","infoHashBuffer":{"type":"Buffer","data":[102,72,236,224,120,115,182,130,212,231,198,48,90,211,149,168,253,22,131,148]},"announce":[],"urlList":[]}}